<svg xmlns="http://www.w3.org/2000/svg" viewBox="0 0 43.93 22.61"><defs><style>.cls-1{fill:none;stroke:#27a23b;stroke-miterlimit:10;}.cls-2{fill:#27a23b;}</style></defs><g id="Left_Side" data-name="Left Side"><path class="cls-1" d="M20.76,32c0-5.74.25-7.52,3.25-6.5C27.41,26.65,30,29.26,30,32c0,3.59-2.54,5.38-5.95,6.5C21,39.48,20.76,37.73,20.76,32Z" transform="translate(-10.04 -20.69)"/><g id="beams"><line class="cls-2" x1="8.44" y1="11.3" x2="0.44" y2="11.3"/><path class="cls-2" d="M10.48,31.5h8c.59,0,.62,1,0,1h-8C9.86,32.5,9.93,31.5,10.48,31.5Z" transform="translate(-10.04 -20.69)"/><line class="cls-2" x1="9.62" y1="5.07" x2="3.06" y2="0.48"/><path class="cls-2" d="M13.39,20.77l6.55,4.59c.48.33-.06,1.17-.57.82l-6.56-4.59C12.3,21.23,12.93,20.45,13.39,20.77Z" transform="translate(-10.04 -20.69)"/><line class="cls-2" x1="9.62" y1="17.53" x2="3.07" y2="22.12"/><path class="cls-2" d="M12.82,42.4l6.55-4.59c.48-.33,1.09.47.58.82l-6.56,4.59C12.88,43.58,12.36,42.72,12.82,42.4Z" transform="translate(-10.04 -20.69)"/></g></g><g id="Right_Side" data-name="Right Side"><path class="cls-1" d="M43.25,32c0,5.74-.25,7.52-3.25,6.5-3.4-1.15-6-3.76-6-6.5,0-3.59,2.54-5.38,6-6.5C43,24.52,43.25,26.27,43.25,32Z" transform="translate(-10.04 -20.69)"/><g id="beams-2" data-name="beams"><line class="cls-2" x1="35.49" y1="11.31" x2="43.49" y2="11.31"/><path class="cls-2" d="M53.53,32.5h-8c-.59,0-.62-1,0-1h8C54.15,31.5,54.08,32.5,53.53,32.5Z" transform="translate(-10.04 -20.69)"/><line class="cls-2" x1="34.32" y1="17.54" x2="40.87" y2="22.13"/><path class="cls-2" d="M50.62,43.23l-6.55-4.59c-.48-.33.06-1.17.57-.82l6.56,4.59C51.71,42.77,51.08,43.55,50.62,43.23Z" transform="translate(-10.04 -20.69)"/><line class="cls-2" x1="34.31" y1="5.08" x2="40.87" y2="0.5"/><path class="cls-2" d="M51.19,21.6l-6.55,4.59c-.48.33-1.09-.47-.58-.82l6.56-4.59C51.13,20.42,51.65,21.28,51.19,21.6Z" transform="translate(-10.04 -20.69)"/></g></g></svg>