<svg xmlns="http://www.w3.org/2000/svg" viewBox="0 0 43.93 21.42"><defs><style>.cls-1{fill:none;stroke:#000;stroke-miterlimit:10;}</style></defs><g id="Left_Side" data-name="Left Side"><path class="cls-1" d="M20.76,32c0-5.74.25-7.52,3.25-6.5C27.41,26.65,30,29.26,30,32c0,3.59-2.54,5.38-5.95,6.5C21,39.48,20.76,37.73,20.76,32Z" transform="translate(-10.04 -21.25)"/><g id="beams"><line x1="8.44" y1="10.75" x2="0.44" y2="10.75"/><path d="M10.48,31.5h8c.59,0,.62,1,0,1h-8C9.86,32.5,9.93,31.5,10.48,31.5Z" transform="translate(-10.04 -21.25)"/><line x1="9.59" y1="3.87" x2="2.34" y2="0.49"/><path d="M12.59,21.29l7.25,3.38c.53.24.14,1.17-.42.9l-7.25-3.38C11.6,21.93,12.08,21.05,12.59,21.29Z" transform="translate(-10.04 -21.25)"/><line x1="9.49" y1="17.54" x2="2.24" y2="20.92"/><path d="M12.06,41.71l7.25-3.38c.53-.25,1,.64.43.91l-7.25,3.38C11.92,42.88,11.56,42,12.06,41.71Z" transform="translate(-10.04 -21.25)"/></g></g><g id="Right_Side" data-name="Right Side"><path class="cls-1" d="M43.25,32c0,5.74-.25,7.52-3.25,6.5-3.4-1.15-6-3.76-6-6.5,0-3.59,2.54-5.38,6-6.5C43,24.52,43.25,26.27,43.25,32Z" transform="translate(-10.04 -21.25)"/><g id="beams-2" data-name="beams"><line x1="35.49" y1="10.76" x2="43.49" y2="10.76"/><path d="M53.53,32.5h-8c-.59,0-.62-1,0-1h8C54.15,31.5,54.08,32.5,53.53,32.5Z" transform="translate(-10.04 -21.25)"/><line x1="34.45" y1="17.55" x2="41.7" y2="20.93"/><path d="M51.53,42.63l-7.25-3.38c-.53-.25-.14-1.17.42-.91L52,41.72C52.52,42,52,42.86,51.53,42.63Z" transform="translate(-10.04 -21.25)"/><line x1="34.48" y1="3.89" x2="41.73" y2="0.51"/><path d="M52,22.2l-7.25,3.39c-.53.24-1-.65-.42-.91l7.25-3.38C52.12,21,52.48,22,52,22.2Z" transform="translate(-10.04 -21.25)"/></g></g></svg>